<svg id="Capa_1" data-name="Capa 1" xmlns="http://www.w3.org/2000/svg" viewBox="0 0 947.41 513.32"><defs><style>.cls-1{fill:#494949;}.cls-2{fill:#f77d56;}.cls-3{fill:none;}</style></defs><path class="cls-1" d="M815.62,283.73q-1.35,6.38-3.14,13.63t-3.85,14.8q-2.07,7.54-4.35,14.71t-4.38,13.19l-16.12.45q1.15-13.49,2.67-26.87t4.89-29.24l7.36-35.55,24.28-.67ZM787.77,354a13.91,13.91,0,0,1,9.85,3.08q3.79,3.25,4,10,.23,8.07-4.68,12.71a16.47,16.47,0,0,1-11.16,4.83,13.78,13.78,0,0,1-9.87-3.18q-3.79-3.36-4-10.07a17,17,0,0,1,1.23-7.05,17.22,17.22,0,0,1,3.55-5.48,15.72,15.72,0,0,1,5.12-3.5A16.18,16.18,0,0,1,787.77,354Z"/><polyline class="cls-2" points="167.05 239.12 68.18 239.12 470.71 94.64 866.18 239.12 767.31 239.12 470.71 164.39 167.05 239.12"/><path class="cls-2" d="M403.41,401.1h22.51V407H409.71v9.84H423.3v5.75H409.71v10.15h16.66v5.85h-23Z"/><path class="cls-2" d="M431,397.77h6.24v40.77H431Z"/><path class="cls-2" d="M455.05,397.77h6.24v40.77h-6.24Z"/><path class="cls-2" d="M467.83,410.86h6.24v18.87a10.85,10.85,0,0,0,.14,1.86,2.32,2.32,0,0,0,.62,1.24,2.75,2.75,0,0,0,1.36.71,10,10,0,0,0,2.38.23,20.51,20.51,0,0,0,2.85-.18c.86-.11,1.59-.24,2.2-.38a17.49,17.49,0,0,0,1.94-.57V410.86h6.24v27.68h-4.57l-.73-2.05a22.07,22.07,0,0,1-3.18,1.45,31.21,31.21,0,0,1-3.4,1,18.55,18.55,0,0,1-4.08.44q-4.08,0-6-2.16c-1.32-1.44-2-3.7-2-6.76Z"/><path class="cls-2" d="M500.51,445.47a20.56,20.56,0,0,0,2.18.34c.7.08,1.55.16,2.53.22s2.09.09,3.3.09a31.11,31.11,0,0,0,3.58-.17,5.89,5.89,0,0,0,2.15-.6,2.29,2.29,0,0,0,1.06-1.18,5.34,5.34,0,0,0,.29-1.88v-4.83a25.13,25.13,0,0,1-2.49.9c-.77.22-1.64.43-2.61.61a15.9,15.9,0,0,1-3.06.28,13.34,13.34,0,0,1-4.73-.75,7,7,0,0,1-3.26-2.48,11.71,11.71,0,0,1-1.87-4.54,32.87,32.87,0,0,1-.61-6.9,25.1,25.1,0,0,1,.66-6,13.69,13.69,0,0,1,1.93-4.51,8.68,8.68,0,0,1,3.15-2.83,9.07,9.07,0,0,1,4.31-1,15.94,15.94,0,0,1,3.79.42,23.21,23.21,0,0,1,3,.92,17.82,17.82,0,0,1,2.62,1.34l.71-2.05h4.72v31.82a10.94,10.94,0,0,1-.72,4.22,6.44,6.44,0,0,1-2.18,2.78,9.54,9.54,0,0,1-3.63,1.52,25.17,25.17,0,0,1-5.06.46,26,26,0,0,1-3.57-.25q-1.73-.26-3.12-.57a27,27,0,0,1-3.05-.81Zm9.13-11.81c.74,0,1.46,0,2.17-.09s1.34-.14,1.9-.22,1.3-.21,1.89-.35V417.16a23,23,0,0,0-2.2-.66c-.67-.17-1.43-.33-2.29-.47a16.35,16.35,0,0,0-2.65-.21,5.41,5.41,0,0,0-2.33.45,3.31,3.31,0,0,0-1.52,1.49,8.25,8.25,0,0,0-.83,2.78,30.49,30.49,0,0,0-.25,4.31c0,1.57.06,2.92.16,4a6.79,6.79,0,0,0,.76,2.74,3.44,3.44,0,0,0,1.84,1.54A9.22,9.22,0,0,0,509.64,433.66Z"/><path class="cls-2" d="M527.38,430.7a10,10,0,0,1,.7-4,6.77,6.77,0,0,1,1.88-2.62,7.45,7.45,0,0,1,2.81-1.45,13,13,0,0,1,3.48-.44,25.3,25.3,0,0,1,3.42.21c1,.14,1.91.29,2.67.47a22,22,0,0,1,2.33.65V421a15,15,0,0,0-.07-1.63,5.3,5.3,0,0,0-.22-1.17,2.41,2.41,0,0,0-.43-.83,4.66,4.66,0,0,0-.67-.66,5.76,5.76,0,0,0-2.31-.86,23.18,23.18,0,0,0-3.83-.26c-1,0-2,0-2.9.09s-1.77.14-2.5.22-1.67.19-2.44.29v-4.37a17,17,0,0,1,2.59-.77c.88-.19,2-.37,3.28-.54a39,39,0,0,1,4.67-.25,30.7,30.7,0,0,1,3.22.15,12.44,12.44,0,0,1,2.47.48,7.49,7.49,0,0,1,1.91.9,6.54,6.54,0,0,1,1.48,1.36,7.32,7.32,0,0,1,.92,1.44,8.92,8.92,0,0,1,.6,1.79,14.64,14.64,0,0,1,.33,2.34c.06.89.09,1.91.09,3.09v16.76h-5.27l-.47-2.05a15.36,15.36,0,0,1-2.55,1.45,21.37,21.37,0,0,1-2.82,1,13.64,13.64,0,0,1-3.55.44,14.79,14.79,0,0,1-4-.47,6.35,6.35,0,0,1-2.75-1.49,6.06,6.06,0,0,1-1.54-2.68A14.13,14.13,0,0,1,527.38,430.7Zm6.38,0a4.82,4.82,0,0,0,.28,1.83,2.31,2.31,0,0,0,.84,1,3.36,3.36,0,0,0,1.36.46,14.14,14.14,0,0,0,1.82.1,12.13,12.13,0,0,0,2.53-.25,20.86,20.86,0,0,0,2.11-.53,15.26,15.26,0,0,0,2-.79v-4.8c-.56-.11-1.16-.2-1.81-.29s-1.19-.16-1.9-.22-1.46-.1-2.25-.1a17.88,17.88,0,0,0-2.24.12,3.78,3.78,0,0,0-1.53.5,2.24,2.24,0,0,0-.9,1.08A5,5,0,0,0,533.76,430.7Z"/><path class="cls-2" d="M557.55,410.86H563l.37,3a20.3,20.3,0,0,1,4.59-2.2,21.1,21.1,0,0,1,5.72-1l0,6.46q-3.29,0-5.68.32a16.39,16.39,0,0,0-4.1,1v20.15h-6.25Z"/><path class="cls-2" d="M591.69,406.17a8.49,8.49,0,0,1-1.77-.16,2.5,2.5,0,0,1-1.13-.55,2.12,2.12,0,0,1-.61-1.08,7.59,7.59,0,0,1-.17-1.75,7.78,7.78,0,0,1,.17-1.77,2.3,2.3,0,0,1,.61-1.12,2.34,2.34,0,0,1,1.13-.58,8.58,8.58,0,0,1,1.77-.15,8.71,8.71,0,0,1,1.77.15,2.09,2.09,0,0,1,1.69,1.7,8.49,8.49,0,0,1,.16,1.77,8.28,8.28,0,0,1-.16,1.75,2.09,2.09,0,0,1-.58,1.08,2.42,2.42,0,0,1-1.11.55A8.63,8.63,0,0,1,591.69,406.17Zm-3.13,4.69h6.25v27.68h-6.25Z"/><path class="cls-2" d="M601.79,410.86h4.57l.76,2.05a22.86,22.86,0,0,1,3.15-1.42,31.65,31.65,0,0,1,3.39-1,17.9,17.9,0,0,1,4.1-.44q4.1,0,6,2.13c1.3,1.43,2,3.66,2,6.71v19.62h-6.25V419.68a10.81,10.81,0,0,0-.14-1.85,2.35,2.35,0,0,0-.62-1.26,2.88,2.88,0,0,0-1.36-.72,9.47,9.47,0,0,0-2.38-.24,18.92,18.92,0,0,0-2.85.2c-.86.13-1.59.26-2.2.4a19.82,19.82,0,0,0-1.94.58v21.75h-6.24Z"/><path class="cls-2" d="M640.17,439.35a10.32,10.32,0,0,1-4.11-.76,6.75,6.75,0,0,1-2.95-2.48,12.85,12.85,0,0,1-1.79-4.5,33,33,0,0,1-.65-6.79,29.86,29.86,0,0,1,.59-6.79,13.08,13.08,0,0,1,1.87-4.58,7.19,7.19,0,0,1,3-2.57,9.49,9.49,0,0,1,4-.8,20.27,20.27,0,0,1,3.72.31c1.12.21,2.09.44,2.92.68a19.1,19.1,0,0,1,2.54,1V397.77h6.24v40.77h-5.37l-.37-2.2a16.62,16.62,0,0,1-2.68,1.52,19.34,19.34,0,0,1-3,1A15.34,15.34,0,0,1,640.17,439.35Zm2.2-5.58a16.85,16.85,0,0,0,2.61-.2,22.58,22.58,0,0,0,2.22-.46,16.68,16.68,0,0,0,2.1-.68V416.61c-.72-.18-1.48-.34-2.28-.5s-1.47-.24-2.35-.34a22,22,0,0,0-2.72-.16,5,5,0,0,0-2.36.49,3.32,3.32,0,0,0-1.44,1.61,9.49,9.49,0,0,0-.72,3,44.07,44.07,0,0,0-.2,4.54,34,34,0,0,0,.19,4,7.21,7.21,0,0,0,.73,2.65,3.31,3.31,0,0,0,1.56,1.49A6.58,6.58,0,0,0,642.37,433.77Z"/><path class="cls-2" d="M665.65,406.17a8.66,8.66,0,0,1-1.78-.16,2.46,2.46,0,0,1-1.12-.55,2.12,2.12,0,0,1-.61-1.08,7.59,7.59,0,0,1-.17-1.75,7.78,7.78,0,0,1,.17-1.77,2.17,2.17,0,0,1,1.73-1.7,10.58,10.58,0,0,1,3.55,0,2.09,2.09,0,0,1,1.69,1.7,8.58,8.58,0,0,1,.15,1.77,8.37,8.37,0,0,1-.15,1.75,2.09,2.09,0,0,1-.58,1.08,2.42,2.42,0,0,1-1.11.55A8.63,8.63,0,0,1,665.65,406.17Zm-3.13,4.69h6.25v27.68h-6.25Z"/><path class="cls-2" d="M673.86,424.69a20.48,20.48,0,0,1,1-6.69,12,12,0,0,1,2.59-4.47,9.89,9.89,0,0,1,3.85-2.51,14,14,0,0,1,4.69-.79,22.19,22.19,0,0,1,3.44.25c1,.17,1.88.35,2.6.54a14.26,14.26,0,0,1,2.17.76v4.3l-1.94-.18-2-.12c-.75,0-1.54-.06-2.36-.06a14.43,14.43,0,0,0-3.38.34,4.41,4.41,0,0,0-2.31,1.3,5.84,5.84,0,0,0-1.31,2.7,20.21,20.21,0,0,0-.42,4.58,18.54,18.54,0,0,0,.48,4.67,6.11,6.11,0,0,0,1.48,2.76,4.91,4.91,0,0,0,2.5,1.31,16.52,16.52,0,0,0,3.54.33c.85,0,1.65,0,2.37-.06s1.36-.1,1.9-.17a17.13,17.13,0,0,0,1.71-.27v4.36a10.86,10.86,0,0,1-2,.84,21.59,21.59,0,0,1-2.57.58,22.49,22.49,0,0,1-3.62.26,16,16,0,0,1-4.79-.7,9.26,9.26,0,0,1-3.9-2.37,11.61,11.61,0,0,1-2.64-4.47A21.64,21.64,0,0,1,673.86,424.69Z"/><path class="cls-2" d="M697.89,430.7a10,10,0,0,1,.7-4,6.77,6.77,0,0,1,1.88-2.62,7.45,7.45,0,0,1,2.81-1.45,13,13,0,0,1,3.48-.44,25.3,25.3,0,0,1,3.42.21c1,.14,1.91.29,2.66.47a21.58,21.58,0,0,1,2.34.65V421a15,15,0,0,0-.07-1.63,5.3,5.3,0,0,0-.22-1.17,2.41,2.41,0,0,0-.43-.83,4.66,4.66,0,0,0-.67-.66,5.76,5.76,0,0,0-2.31-.86,23.18,23.18,0,0,0-3.83-.26c-1,0-2,0-2.9.09s-1.77.14-2.5.22-1.67.19-2.44.29v-4.37a17,17,0,0,1,2.59-.77c.88-.19,2-.37,3.28-.54a39,39,0,0,1,4.67-.25,30.7,30.7,0,0,1,3.22.15,12.44,12.44,0,0,1,2.47.48,7.49,7.49,0,0,1,1.91.9,6.54,6.54,0,0,1,1.48,1.36,7.32,7.32,0,0,1,.92,1.44,8.92,8.92,0,0,1,.6,1.79,14.64,14.64,0,0,1,.33,2.34c.06.89.09,1.91.09,3.09v16.76H716.1l-.47-2.05a15.36,15.36,0,0,1-2.55,1.45,21.37,21.37,0,0,1-2.82,1,13.64,13.64,0,0,1-3.55.44,14.79,14.79,0,0,1-4-.47,6.35,6.35,0,0,1-2.75-1.49,6.06,6.06,0,0,1-1.54-2.68A14.13,14.13,0,0,1,697.89,430.7Zm6.38,0a4.82,4.82,0,0,0,.28,1.83,2.31,2.31,0,0,0,.84,1,3.36,3.36,0,0,0,1.36.46,14.14,14.14,0,0,0,1.82.1,12.13,12.13,0,0,0,2.53-.25,20.86,20.86,0,0,0,2.11-.53,15.26,15.26,0,0,0,2-.79v-4.8c-.56-.11-1.16-.2-1.81-.29s-1.2-.16-1.9-.22-1.46-.1-2.25-.1a17.88,17.88,0,0,0-2.24.12,3.78,3.78,0,0,0-1.53.5,2.24,2.24,0,0,0-.9,1.08A5,5,0,0,0,704.27,430.7Z"/><path class="cls-2" d="M736,439.35a10.27,10.27,0,0,1-4.1-.76,6.7,6.7,0,0,1-3-2.48,12.66,12.66,0,0,1-1.8-4.5,33.1,33.1,0,0,1-.64-6.79,28.76,28.76,0,0,1,.59-6.79,13.27,13.27,0,0,1,1.86-4.58,7.19,7.19,0,0,1,3-2.57,9.53,9.53,0,0,1,4-.8,20.3,20.3,0,0,1,3.73.31c1.12.21,2.09.44,2.91.68a19.1,19.1,0,0,1,2.54,1V397.77h6.25v40.77H746l-.37-2.2a16.51,16.51,0,0,1-2.67,1.52,19.48,19.48,0,0,1-3.06,1A15.34,15.34,0,0,1,736,439.35Zm2.21-5.58a16.85,16.85,0,0,0,2.61-.2,21.75,21.75,0,0,0,2.21-.46,15.69,15.69,0,0,0,2.1-.68V416.61c-.71-.18-1.47-.34-2.28-.5s-1.46-.24-2.35-.34a21.8,21.8,0,0,0-2.71-.16,5,5,0,0,0-2.36.49,3.34,3.34,0,0,0-1.45,1.61,9.49,9.49,0,0,0-.72,3,44.41,44.41,0,0,0-.19,4.54,36.7,36.7,0,0,0,.18,4,7.41,7.41,0,0,0,.73,2.65,3.28,3.28,0,0,0,1.57,1.49A6.58,6.58,0,0,0,738.19,433.77Z"/><path class="cls-2" d="M756,424.69a23,23,0,0,1,.76-6.23,11.67,11.67,0,0,1,2.37-4.58,10.27,10.27,0,0,1,4.08-2.83,18.49,18.49,0,0,1,11.82,0,10.13,10.13,0,0,1,4.08,2.83,11.79,11.79,0,0,1,2.36,4.58,23,23,0,0,1,.76,6.23,23.26,23.26,0,0,1-.76,6.25,11.78,11.78,0,0,1-2.36,4.61,10.13,10.13,0,0,1-4.08,2.83,18.49,18.49,0,0,1-11.82,0,10.27,10.27,0,0,1-4.08-2.83,11.66,11.66,0,0,1-2.37-4.61A23.26,23.26,0,0,1,756,424.69Zm13.11,9.39a7.84,7.84,0,0,0,3.36-.62,4.56,4.56,0,0,0,2-1.81,7.89,7.89,0,0,0,.95-2.94,28.38,28.38,0,0,0,.25-4,28,28,0,0,0-.25-4,7.77,7.77,0,0,0-.95-2.94,4.64,4.64,0,0,0-2-1.82,7.85,7.85,0,0,0-3.36-.61,7.77,7.77,0,0,0-3.33.61,4.7,4.7,0,0,0-2,1.82,7.61,7.61,0,0,0-1,2.94,29.64,29.64,0,0,0-.24,4,30.06,30.06,0,0,0,.24,4,7.72,7.72,0,0,0,1,2.94,4.61,4.61,0,0,0,2,1.81A7.76,7.76,0,0,0,769.09,434.08Z"/><path class="cls-1" d="M230.87,380q-.5-8.69-1.28-17.22T228,346.28h-58.2l-9.13,16.41Q156,371,151.19,380h-27.8q12.57-21.82,24-41.18T169.66,302q10.82-17.5,21.44-33.45t21.33-31.2h24.12q6.62,30.67,11.37,67T257,380Zm-12.05-115.5q-7.84,12.19-17.43,27.31t-20.28,33.84h44.71q-1.11-14.64-2.91-30T218.82,264.54Z"/><path class="cls-1" d="M268.34,341.13a76.08,76.08,0,0,1,5-27.8,66.05,66.05,0,0,1,14.41-22.54,67.65,67.65,0,0,1,22.85-15.14,78.61,78.61,0,0,1,30.17-5.55,87.85,87.85,0,0,1,16.26,1.64A76,76,0,0,1,374,277.1l-33.76,141H315.33L325,377.57a53.33,53.33,0,0,1-10.11,3.6A45,45,0,0,1,304,382.51q-17.1,0-26.39-11.22T268.34,341.13Zm77.2-49.21c-1.23-.27-2.68-.51-4.32-.72a37.54,37.54,0,0,0-4.74-.31,40.91,40.91,0,0,0-18.11,3.91,42.31,42.31,0,0,0-13.7,10.51A46,46,0,0,0,296,320.64a56.69,56.69,0,0,0-3,18.43q0,10.29,4,16.36t13.72,6.08a35.31,35.31,0,0,0,9.91-1.44,31,31,0,0,0,9.71-4.94Z"/><path class="cls-1" d="M482,272.36l-15.24,64a88.7,88.7,0,0,0-1.54,9.46,86,86,0,0,0-.52,9.47,73.6,73.6,0,0,0,.93,11.74,51.7,51.7,0,0,0,3.19,11.32l-22.23,3.3a30.81,30.81,0,0,1-2.17-5.05c-.61-1.85-1.2-3.74-1.75-5.66A71.39,71.39,0,0,1,430,378.9a39,39,0,0,1-17.71,3.81A40,40,0,0,1,396.8,380a26.82,26.82,0,0,1-16.16-18.22,49.13,49.13,0,0,1-1.75-13.28A85.54,85.54,0,0,1,381.36,329L395,272.36h24.91l-13.44,56a76.78,76.78,0,0,0-2.62,17.5,29.56,29.56,0,0,0,.62,6.18,13.35,13.35,0,0,0,2.17,5,10.42,10.42,0,0,0,4.33,3.4,17.18,17.18,0,0,0,6.92,1.23A26.15,26.15,0,0,0,430,358.94a38,38,0,0,0,9.91-7.52,107.85,107.85,0,0,1,2.89-18.12l14.3-60.94Z"/><path class="cls-1" d="M505.09,380H480.18l25.94-107.68H531ZM539.67,217l13.39,16.88L514.15,260l-10.09-12.35Z"/><path class="cls-1" d="M573.45,341.13a81.5,81.5,0,0,1,4.42-26.67,71.59,71.59,0,0,1,12.77-22.84,63.26,63.26,0,0,1,20.07-16,57.37,57.37,0,0,1,26.35-6q15.65,0,24.3,8T670,298.31q0,13-6.38,21a42.91,42.91,0,0,1-16.57,12.56A82.46,82.46,0,0,1,624,338q-12.87,1.65-26,2a1.89,1.89,0,0,0-.21.83V343q0,18.74,23.68,18.73a73.13,73.13,0,0,0,28-5.76l2.05,20.18a87.16,87.16,0,0,1-34.59,6.79q-11.52,0-19.76-3.29a36.13,36.13,0,0,1-13.49-9.06,36.51,36.51,0,0,1-7.72-13.28A51.66,51.66,0,0,1,573.45,341.13Zm59.91-51.06a28.55,28.55,0,0,0-11.74,2.47,32.42,32.42,0,0,0-9.88,6.8,44,44,0,0,0-7.52,10.19,46.42,46.42,0,0,0-4.63,12.66q24.7-.82,35.93-6t11.22-15.45a10.73,10.73,0,0,0-3-7.4Q640.77,290.07,633.36,290.07Z"/><path class="cls-1" d="M699,362.54q9.88,0,15.65-3.19a10.47,10.47,0,0,0,5.76-9.78,10.69,10.69,0,0,0-3.71-8.55q-3.69-3.18-13-7.51-4.93-2.26-9.16-4.73a32.41,32.41,0,0,1-7.31-5.77,25.84,25.84,0,0,1-4.94-7.72,27.52,27.52,0,0,1-1.85-10.61q0-16.05,11.73-25.52t34-9.48a71.85,71.85,0,0,1,18.42,2.17,56.67,56.67,0,0,1,12.25,4.43L748,295.63a47.15,47.15,0,0,0-10.09-4,48,48,0,0,0-13.79-2,38.57,38.57,0,0,0-6.9.61,20.68,20.68,0,0,0-6.07,2.06,12.28,12.28,0,0,0-4.43,4,10.89,10.89,0,0,0-1.75,6.28,9.36,9.36,0,0,0,3.81,7.72,55.81,55.81,0,0,0,11,6.27,111.4,111.4,0,0,1,11.52,6,32.53,32.53,0,0,1,7.82,6.49,23.32,23.32,0,0,1,4.54,8,34.79,34.79,0,0,1,1.44,10.6,32.41,32.41,0,0,1-3.09,14.11,31,31,0,0,1-9,11.11,44.22,44.22,0,0,1-14.51,7.31,66.68,66.68,0,0,1-19.77,2.68,82.09,82.09,0,0,1-13.69-1,93.47,93.47,0,0,1-10.6-2.36,54.51,54.51,0,0,1-7.61-2.79,43,43,0,0,1-4.74-2.47L671,354.72c1,.54,2.37,1.27,4.22,2.16a57.61,57.61,0,0,0,6.39,2.57,65.94,65.94,0,0,0,8,2.16A45.53,45.53,0,0,0,699,362.54Z"/><path class="cls-1" d="M344.61,62.63A37.22,37.22,0,0,0,300,90.53c-5.16,22.35,16.91,92.26,16.91,92.26s50.44-53,55.64-75.51A37.22,37.22,0,0,0,344.61,62.63Zm-12.77,54.79a19,19,0,1,1,22.82-14.26A19,19,0,0,1,331.84,117.42Z"/><path class="cls-1" d="M879.23,267a18.51,18.51,0,1,1-18.45-18A18.1,18.1,0,0,1,879.23,267Zm-32.39,0c0,8,5.93,14.39,14,14.39,7.91,0,13.73-6.37,13.73-14.28s-5.82-14.49-13.84-14.49S846.84,259.09,846.84,267Zm11.09,9.45h-4.17v-18a36.3,36.3,0,0,1,6.91-.55c3.41,0,4.94.55,6.26,1.32a5,5,0,0,1,1.76,3.95c0,2-1.54,3.52-3.73,4.17v.22c1.75.66,2.74,2,3.29,4.4.55,2.74.88,3.84,1.32,4.5h-4.5c-.55-.66-.88-2.31-1.43-4.39-.33-2-1.43-2.86-3.73-2.86h-2Zm.11-10.21h2c2.31,0,4.18-.77,4.18-2.64,0-1.65-1.21-2.74-3.85-2.74a10,10,0,0,0-2.3.22Z"/><rect class="cls-3" width="947.41" height="513.32"/><rect class="cls-3" x="872.7" y="451.66" width="74.7" height="61.66"/><rect class="cls-3" x="872.7" width="74.7" height="61.66"/></svg>