<?xml version="1.0" standalone="no"?>
<!DOCTYPE svg PUBLIC "-//W3C//DTD SVG 20010904//EN"
 "http://www.w3.org/TR/2001/REC-SVG-20010904/DTD/svg10.dtd">
<svg version="1.0" xmlns="http://www.w3.org/2000/svg"
 width="267.000000pt" height="240.000000pt" viewBox="0 0 267.000000 240.000000"
 preserveAspectRatio="xMidYMid meet">
<metadata>
Created by potrace 1.16, written by Peter Selinger 2001-2019
</metadata>
<g transform="translate(0.000000,240.000000) scale(0.100000,-0.100000)"
fill="#000000" stroke="none">
<path d="M1155 2384 c-314 -34 -503 -84 -800 -211 -82 -36 -186 -80 -230 -98
-89 -38 -105 -54 -105 -103 0 -60 49 -238 101 -364 119 -291 280 -547 508
-808 160 -183 473 -486 650 -627 l64 -52 61 42 c174 117 423 327 596 501 l105
106 -538 0 -537 0 5 23 c6 24 165 783 269 1277 36 173 66 318 66 323 0 10 -61
7 -215 -9z"/>
<path d="M1636 2343 c-3 -10 -39 -184 -81 -388 -42 -203 -103 -496 -136 -650
-32 -154 -59 -283 -59 -287 0 -5 213 -8 474 -8 l474 0 34 53 c78 120 99 157
146 262 27 61 59 139 71 174 63 183 96 411 72 496 -10 39 -12 40 -55 42 -62 3
-342 96 -657 219 -146 57 -268 104 -272 104 -3 0 -8 -8 -11 -17z"/>
</g>
</svg>
